<svg width="667" height="488" viewBox="0 0 667 488" fill="none" xmlns="http://www.w3.org/2000/svg">
<g clip-path="url(#clip0_101_3253)">
<path d="M558.293 25.1497L558.281 25.162L403.293 176.541C403.293 176.542 403.292 176.543 403.291 176.544C401.224 178.579 399.846 181.037 399.412 183.462C398.978 185.887 399.518 188.117 400.933 189.738C402.348 191.359 404.541 192.261 407.109 192.278C409.675 192.295 412.441 191.425 414.894 189.83L558.293 25.1497ZM558.293 25.1497L558.305 25.1371C565.488 17.6719 574.191 11.5074 583.582 7.23199C592.974 2.95655 602.742 0.712869 611.953 0.715171C626.241 0.715171 638.237 6.11484 645.303 15.7258C652.37 25.3367 653.927 38.3715 649.634 51.9626L528.383 435.822C524.09 449.413 514.297 462.448 501.159 472.059C488.021 481.67 472.614 487.069 458.326 487.069H447.182C439.347 487.072 432.118 485.451 426 482.318C419.882 479.185 415.02 474.615 411.754 468.928L207.644 105.702L207.644 105.701C207.219 104.949 206.501 104.409 205.586 104.154C204.671 103.9 203.604 103.943 202.529 104.278C201.455 104.612 200.424 105.223 199.579 106.026C198.733 106.83 198.112 107.787 197.802 108.769L197.802 108.769L111.712 381.314C111.407 382.241 111.392 383.151 111.666 383.933C111.941 384.717 112.496 385.339 113.262 385.723C114.028 386.107 114.973 386.237 115.981 386.097C116.986 385.958 118.012 385.555 118.933 384.939C118.935 384.937 118.937 384.936 118.939 384.935L251.901 297.956C251.901 297.956 251.902 297.955 251.902 297.955C254.356 296.36 257.122 295.49 259.689 295.507C262.256 295.523 264.45 296.426 265.865 298.047C267.28 299.667 267.82 301.897 267.386 304.323C266.952 306.748 265.574 309.205 263.506 311.241C263.506 311.242 263.505 311.242 263.505 311.243L108.517 462.622L108.505 462.635L108.493 462.647C101.31 470.112 92.6073 476.277 83.2156 480.552C73.8239 484.828 64.0563 487.072 54.8449 487.069C40.5573 487.069 28.561 481.67 21.4946 472.059C14.4282 462.448 12.8706 449.413 17.1637 435.822L138.415 51.9626C142.708 38.3715 152.501 25.3367 165.639 15.7258C178.777 6.11484 194.184 0.715171 208.472 0.715171L219.616 0.715171C219.616 0.715171 219.616 0.715171 219.616 0.715171C227.444 0.717103 234.664 2.34098 240.776 5.47384C246.887 8.60641 251.744 13.1725 255.007 18.8546C255.007 18.8552 255.008 18.8558 255.008 18.8563L459.154 382.083L459.154 382.083C459.579 382.836 460.297 383.375 461.212 383.63C462.127 383.885 463.194 383.842 464.269 383.507C465.343 383.172 466.374 382.562 467.219 381.758C468.065 380.955 468.686 379.997 468.996 379.016L555.086 106.47C555.391 105.544 555.406 104.634 555.132 103.851C554.857 103.068 554.302 102.446 553.536 102.062C552.77 101.677 551.825 101.547 550.817 101.687C549.812 101.827 548.786 102.229 547.865 102.846C547.863 102.847 547.861 102.848 547.859 102.85L414.897 189.829L558.293 25.1497Z" stroke="#E6E8EC" stroke-width="1.5"/>
</g>
<defs>
<clipPath id="clip0_101_3253">
<rect width="512.719" height="511.541" fill="white" transform="matrix(1 0 -0.301205 0.953559 154.079 0)"/>
</clipPath>
</defs>
</svg>
